<svg id="visual" viewBox="0 0 900 600" width="900" height="600" xmlns="http://www.w3.org/2000/svg" xmlns:xlink="http://www.w3.org/1999/xlink" version="1.1"><path d="M0 151L82 103L164 157L245 73L327 103L409 103L491 85L573 115L655 121L736 115L818 157L900 91L900 0L818 0L736 0L655 0L573 0L491 0L409 0L327 0L245 0L164 0L82 0L0 0Z" fill="#001122"></path><path d="M0 337L82 217L164 331L245 307L327 187L409 349L491 295L573 259L655 283L736 247L818 307L900 307L900 89L818 155L736 113L655 119L573 113L491 83L409 101L327 101L245 71L164 155L82 101L0 149Z" fill="#022b3e"></path><path d="M0 379L82 289L164 391L245 349L327 259L409 415L491 385L573 349L655 319L736 319L818 373L900 397L900 305L818 305L736 245L655 281L573 257L491 293L409 347L327 185L245 305L164 329L82 215L0 335Z" fill="#004758"></path><path d="M0 529L82 541L164 553L245 535L327 505L409 505L491 547L573 493L655 523L736 553L818 553L900 523L900 395L818 371L736 317L655 317L573 347L491 383L409 413L327 257L245 347L164 389L82 287L0 377Z" fill="#00656c"></path><path d="M0 601L82 601L164 601L245 601L327 601L409 601L491 601L573 601L655 601L736 601L818 601L900 601L900 521L818 551L736 551L655 521L573 491L491 545L409 503L327 503L245 533L164 551L82 539L0 527Z" fill="#038373"></path></svg>